<svg xmlns="http://www.w3.org/2000/svg" height="24px" viewBox="0 -960 960 960" width="24px" fill="#8abb3c"><path d="M480-236.15q68.69 0 116.27-48.08T643.85-400v-34.69q0-20.37-14.4-34.76-14.39-14.4-34.76-14.4H365.31q-20.37 0-34.76 14.4-14.4 14.39-14.4 34.76V-400q0 67.69 48.08 115.77T480-236.15Zm0-67.7q-39.31 0-67.73-28.42T383.85-400v-16.15h192.3V-400q0 39.31-27.92 67.73T480-303.85Zm-140.04-380q-34.04 0-60.5 21.66-26.46 21.65-40.31 53.34-5.84 12.7-.38 25.58 5.46 12.88 19.85 16.5 13.61 3.62 25.69-2.92 12.07-6.54 18.92-18.23 5.77-10.54 14.81-19.2 9.04-8.65 21.96-9.03 12.92.38 22.46 9.34 9.54 8.96 15.31 20.5 7 11.79 18.81 17.28 11.8 5.49 24.41 1.88 14.39-3.62 20.05-15.81 5.65-12.19-.19-24.89-13.85-31.69-40.35-53.84-26.5-22.16-60.54-22.16Zm280 0q-34.04 0-60.5 21.66-26.46 21.65-40.31 53.34-5.84 12.7-.38 25.58 5.46 12.88 19.85 16.5 13.61 3.62 25.69-2.92 12.07-6.54 18.92-18.23 5.38-10.54 14.62-19.39 9.23-8.84 22.15-8.84 12.92 0 22.65 9.15 9.74 9.15 15.12 20.69 7 11.79 18.81 17.28 11.8 5.49 24.41 1.88 14.39-3.62 20.05-15.81 5.65-12.19-.19-24.89-13.85-31.69-40.35-53.84-26.5-22.16-60.54-22.16Zm-300.6 583.43q-74.87-32.42-130.68-88.21-55.81-55.79-88.25-130.63Q68-394.1 68-479.93q0-85.84 32.42-160.71t88.21-130.68q55.79-55.81 130.63-88.25Q394.1-892 479.93-892q85.84 0 160.71 32.42t130.68 88.21q55.81 55.79 88.25 130.63Q892-565.9 892-480.07q0 85.84-32.42 160.71t-88.21 130.68q-55.79 55.81-130.63 88.25Q565.9-68 480.07-68q-85.84 0-160.71-32.42Z"/></svg>