<svg xmlns="http://www.w3.org/2000/svg" height="24px" viewBox="0 -960 960 960" width="24px" fill="#8abb3c"><path d="M480-252.31q60.77 0 111.31-29.5t81-79.27q6.61-12.84-.43-24.88Q664.85-398 650-398H310q-14.85 0-21.88 12.04-7.04 12.04-.43 24.88 30.46 49.77 81 79.27 50.54 29.5 111.31 29.5ZM354-561.23l20 20q9.08 9.08 22.58 9.27 13.5.19 22.96-10.27 9.46-9.46 9.65-21.77.19-12.31-9.65-21.77l-31.23-31.84q-14.85-14.85-34.62-15.35-19.77-.5-34.61 14.35l-32.85 32.84q-9.08 9.08-8.77 22.08.31 13 9.77 23.46 9.85 9.84 21.96 10.15 12.12.31 21.58-9.54L354-561.23Zm252 0 23.23 21.61q9.08 9.47 22.08 8.66 13-.81 22.46-11.27 9.46-9.46 9.46-21.77 0-12.31-9.46-21.77l-32.85-32.84q-14.84-14.85-34.61-14.35t-34.62 15.35l-30.84 31.84q-9.46 9.08-9.16 21.58.31 12.5 9.77 21.96 9.46 9.46 22.27 9.96 12.81.5 22.27-8.96l20-20ZM319.39-100.46q-74.85-32.46-130.66-88.27-55.81-55.81-88.27-130.66Q68-394.23 68-480q0-85.77 32.46-160.61 32.46-74.85 88.27-130.66 55.81-55.81 130.66-88.27Q394.23-892 480-892q85.77 0 160.61 32.46 74.85 32.46 130.66 88.27 55.81 55.81 88.27 130.66Q892-565.77 892-480q0 85.77-32.46 160.61-32.46 74.85-88.27 130.66-55.81 55.81-130.66 88.27Q565.77-68 480-68q-85.77 0-160.61-32.46Z"/></svg>