<svg xmlns="http://www.w3.org/2000/svg" height="24px" viewBox="0 -960 960 960" width="24px" fill="#FFFF55"><path d="M624.13-519.69q25.95 0 44.14-18.17 18.19-18.16 18.19-44.11t-18.16-44.14q-18.17-18.2-44.12-18.2-25.95 0-44.14 18.17-18.19 18.16-18.19 44.11t18.16 44.14q18.17 18.2 44.12 18.2Zm-288.31 0q25.95 0 44.14-18.17 18.19-18.16 18.19-44.11t-18.16-44.14q-18.17-18.2-44.12-18.2-25.95 0-44.14 18.17-18.19 18.16-18.19 44.11t18.16 44.14q18.17 18.2 44.12 18.2Zm53.1 183.54h182.16q13.8 0 22.82-9.26 9.02-9.25 9.02-22.57 0-13.33-9.02-22.6-9.02-9.27-22.82-9.27H388.92q-13.8 0-22.82 9.26-9.02 9.25-9.02 22.57 0 13.33 9.02 22.6 9.02 9.27 22.82 9.27Zm-69.56 235.73q-74.87-32.42-130.68-88.21-55.81-55.79-88.25-130.63Q68-394.1 68-479.93q0-85.84 32.42-160.71t88.21-130.68q55.79-55.81 130.63-88.25Q394.1-892 479.93-892q85.84 0 160.71 32.42t130.68 88.21q55.81 55.79 88.25 130.63Q892-565.9 892-480.07q0 85.84-32.42 160.71t-88.21 130.68q-55.79 55.81-130.63 88.25Q565.9-68 480.07-68q-85.84 0-160.71-32.42Z"/></svg>