<svg xmlns="http://www.w3.org/2000/svg" height="24px" viewBox="0 -960 960 960" width="24px" fill="#8abb3c"><path d="M480.17-252.31q55.91 0 105.6-26t80.54-72.46q9.69-15.15 1.54-31.19-8.16-16.04-26.7-16.04-9.94 0-18.28 5.23-8.33 5.23-15.56 13.31-23 30.54-55.89 47Q518.54-316 480-316t-71.42-16.46q-32.89-16.46-55.89-47-6.84-8.08-15.18-13.31-8.33-5.23-18.28-5.23-18.54 0-26.19 17.54-7.65 17.54 4.04 35.46 30.84 46.08 79.54 69.38 48.69 23.31 103.55 23.31Zm144.07-267.38q25.84 0 44.03-18.29 18.19-18.28 18.19-44.11t-18.28-44.02q-18.28-18.2-44.12-18.2-25.83 0-44.02 18.29-18.19 18.28-18.19 44.11t18.28 44.02q18.28 18.2 44.11 18.2Zm-288.3 0q25.83 0 44.02-18.29 18.19-18.28 18.19-44.11t-18.28-44.02q-18.28-18.2-44.11-18.2-25.84 0-44.03 18.29-18.19 18.28-18.19 44.11t18.28 44.02q18.28 18.2 44.12 18.2Zm-16.58 419.27q-74.87-32.42-130.68-88.21-55.81-55.79-88.25-130.63Q68-394.1 68-479.93q0-85.84 32.42-160.71t88.21-130.68q55.79-55.81 130.63-88.25Q394.1-892 479.93-892q85.84 0 160.71 32.42t130.68 88.21q55.81 55.79 88.25 130.63Q892-565.9 892-480.07q0 85.84-32.42 160.71t-88.21 130.68q-55.79 55.81-130.63 88.25Q565.9-68 480.07-68q-85.84 0-160.71-32.42Z"/></svg>